<svg width="60" height="60" viewBox="0 0 60 60" fill="none" xmlns="http://www.w3.org/2000/svg">
<path fill-rule="evenodd" clip-rule="evenodd" d="M55 30C55 43.8071 43.8071 55 30 55C16.1929 55 5 43.8071 5 30C5 16.1929 16.1929 5 30 5C43.8071 5 55 16.1929 55 30ZM60 30C60 46.5685 46.5685 60 30 60C13.4315 60 0 46.5685 0 30C0 13.4315 13.4315 0 30 0C46.5685 0 60 13.4315 60 30ZM25.8111 42H20.2756V15.8182H30.6051C36.5497 15.8182 39.9886 19.1676 39.9886 24.3707C39.9886 27.9503 38.3395 30.5455 35.3608 31.8239L40.9219 42H34.8111L29.8509 32.7188H25.8111V42ZM25.8111 20.3438V28.2699H29.5696C32.7401 28.2699 34.2869 26.9659 34.2869 24.3707C34.2869 21.7628 32.7401 20.3438 29.544 20.3438H25.8111Z" fill="black"/>
</svg>
